<svg id="Component_71_1" data-name="Component 71 – 1" xmlns="http://www.w3.org/2000/svg" width="24" height="24" viewBox="0 0 24 24">
  <rect id="Rectangle_55830" data-name="Rectangle 55830" width="24" height="24" fill="none"/>
  <path id="icons8-info_1_" data-name="icons8-info (1)" d="M12,4a8,8,0,1,0,8,8A8.009,8.009,0,0,0,12,4Zm0,1.2A6.8,6.8,0,1,1,5.2,12,6.791,6.791,0,0,1,12,5.2ZM12,8a.8.8,0,1,0,.8.8A.8.8,0,0,0,12,8Zm-.009,2.791a.6.6,0,0,0-.591.609v4.4a.6.6,0,1,0,1.2,0V11.4a.6.6,0,0,0-.609-.609Z" fill="#007965" stroke="#007965" stroke-width="0.25"/>
</svg>
