<svg xmlns="http://www.w3.org/2000/svg" width="18.365" height="21.178" viewBox="0 0 18.365 21.178">
  <g id="Group_3963" data-name="Group 3963" transform="translate(0.265)">
    <g id="Group_3942" data-name="Group 3942">
      <path id="icons8-notification" d="M14.026,4.008A7.081,7.081,0,0,0,7.4,11.139v3.373L6.17,16.986,6.164,17a1.645,1.645,0,0,0,1.469,2.316h3.944a2.785,2.785,0,0,0,5.569,0H21.09A1.645,1.645,0,0,0,22.56,17l-.006-.014-1.23-2.475v-3.55A6.974,6.974,0,0,0,14.026,4.008ZM14.092,5.4a5.557,5.557,0,0,1,5.839,5.563v3.713a.7.7,0,0,0,.073.31l1.3,2.609a.216.216,0,0,1-.21.33H7.633a.215.215,0,0,1-.209-.33h0l1.3-2.608a.7.7,0,0,0,.072-.31V11.139A5.683,5.683,0,0,1,14.092,5.4ZM12.97,19.316h2.785a1.392,1.392,0,0,1-2.785,0Z" transform="translate(-6.015 -1.173)" fill="#101010" stroke="#101010" stroke-width="0.5"/>
      <g id="Ellipse_39213" data-name="Ellipse 39213" transform="translate(9.05)" fill="#f58634" stroke="#fff" stroke-width="1.5">
        <circle cx="4.525" cy="4.525" r="4.525" stroke="none"/>
        <circle cx="4.525" cy="4.525" r="3.775" fill="none"/>
      </g>
    </g>
  </g>
</svg>
