<svg xmlns="http://www.w3.org/2000/svg" width="40" height="40" viewBox="0 0 40 40">
  <g id="Group_5551" data-name="Group 5551" transform="translate(-38 -435)">
    <g id="Ellipse_39433" data-name="Ellipse 39433" transform="translate(38 435)" fill="#fff" stroke="#007965" stroke-width="1" stroke-dasharray="2">
      <circle cx="20" cy="20" r="20" stroke="none"/>
      <circle cx="20" cy="20" r="19.5" fill="none"/>
    </g>
    <path id="icons8-mail" d="M7.25,8A3.262,3.262,0,0,0,4,11.25v9.5A3.262,3.262,0,0,0,7.25,24h13.5A3.262,3.262,0,0,0,24,20.75v-9.5A3.262,3.262,0,0,0,20.75,8Zm0,1.5h13.5a1.739,1.739,0,0,1,1.75,1.75V11.8L14,16.4,5.5,11.8V11.25A1.739,1.739,0,0,1,7.25,9.5ZM5.5,13.508l8.144,4.4a.75.75,0,0,0,.713,0l8.144-4.4V20.75a1.739,1.739,0,0,1-1.75,1.75H7.25A1.739,1.739,0,0,1,5.5,20.75Z" transform="translate(44 439)"/>
  </g>
</svg>
