<svg xmlns="http://www.w3.org/2000/svg" width="146" height="134.828" viewBox="0 0 146 134.828">
  <g id="Group_105630" data-name="Group 105630" transform="translate(-449 -268.735)">
    <g id="freepik--background-simple--inject-1--inject-7" transform="translate(449 268.735)">
      <path id="Path_20625" data-name="Path 20625" d="M216.327,159.045c.372-2.135.97-4.246,1.4-6.421a37.953,37.953,0,0,0,.178-12.715,49.944,49.944,0,0,0-9.372-22.317c-5.221-7-13.071-12.675-21.508-10.532-8.778,2.218-16.209,8.988-24.745,12.077-14.458,5.229-29.094-4.3-43.663-3.961-12.58.273-25.779,4.789-34.065,15.955-3.383,4.559-5.74,10.695-4.939,16.731.978,7.356,6.377,12.953,10.4,18.4,6.171,8.342,8.508,17.429,3.315,27.165-3.509,6.6-8.231,12.43-7.823,20.625.654,13.111,12.759,21.029,22.74,24.558,10.14,3.589,21.655,3.961,31.736-.079,8.956-3.6,15.206-11.487,23.37-16.518a36.941,36.941,0,0,1,23.968-5.26c8.627,1.03,17.718,2.844,26.056-.875,7.978-3.565,11.756-13.091,12.053-22.221a36.5,36.5,0,0,0-2.024-13.4c-1.85-5.173-5.942-9.209-7.094-14.7a17.033,17.033,0,0,1,.016-6.508Z" transform="translate(-79.454 -106.601)" fill="#c5e8e2"/>
      <path id="Path_20626" data-name="Path 20626" d="M216.327,159.045c.372-2.135.97-4.246,1.4-6.421a37.953,37.953,0,0,0,.178-12.715,49.944,49.944,0,0,0-9.372-22.317c-5.221-7-13.071-12.675-21.508-10.532-8.778,2.218-16.209,8.988-24.745,12.077-14.458,5.229-29.094-4.3-43.663-3.961-12.58.273-25.779,4.789-34.065,15.955-3.383,4.559-5.74,10.695-4.939,16.731.978,7.356,6.377,12.953,10.4,18.4,6.171,8.342,8.508,17.429,3.315,27.165-3.509,6.6-8.231,12.43-7.823,20.625.654,13.111,12.759,21.029,22.74,24.558,10.14,3.589,21.655,3.961,31.736-.079,8.956-3.6,15.206-11.487,23.37-16.518a36.941,36.941,0,0,1,23.968-5.26c8.627,1.03,17.718,2.844,26.056-.875,7.978-3.565,11.756-13.091,12.053-22.221a36.5,36.5,0,0,0-2.024-13.4c-1.85-5.173-5.942-9.209-7.094-14.7a17.033,17.033,0,0,1,.016-6.508Z" transform="translate(-79.454 -106.601)" fill="#fff" opacity="0.7"/>
    </g>
    <g id="_28480885_Tiny_pharmacists_with_prescription_drugs_for_patients_Converted_" data-name="28480885_Tiny pharmacists with prescription drugs for patients [Converted]" transform="translate(-121.604 -317.486)" opacity="0.6">
      <g id="Group_105626" data-name="Group 105626" transform="translate(570.604 599.478)">
        <g id="_7" data-name="7" transform="translate(0 0)">
          <path id="Path_101110" data-name="Path 101110" d="M617.661,599.79l-40.587,11.079a8.78,8.78,0,0,0-6.157,10.782l20.96,76.788a8.781,8.781,0,0,0,10.782,6.159l40.587-11.079a8.78,8.78,0,0,0,6.157-10.782l-20.96-76.788A8.781,8.781,0,0,0,617.661,599.79Z" transform="translate(-570.604 -599.478)" fill="#c6d1cf"/>
          <path id="Path_101111" data-name="Path 101111" d="M874.377,1412.52s-3.1,6.162-3.1,6.163l6.51,3.276a3.481,3.481,0,0,0,4.885-4.135,3.441,3.441,0,0,0-1.724-2s-6.571-3.312-6.572-3.3Z" transform="translate(-840.164 -1328.381)" fill="#548c83"/>
          <path id="Path_101112" data-name="Path 101112" d="M789.747,1379.687a3.451,3.451,0,0,0,1.543,4.609l6.568,3.305c.008,0,3.106-6.16,3.1-6.164C797.969,1380.365,792.131,1375.135,789.747,1379.687Z" transform="translate(-766.748 -1297.303)" fill="#fff"/>
          <path id="Path_101113" data-name="Path 101113" d="M1166.837,1333.19s-3.1,6.162-3.1,6.163l6.51,3.276a3.481,3.481,0,0,0,4.885-4.135,3.44,3.44,0,0,0-1.724-2s-6.571-3.312-6.572-3.3Z" transform="translate(-1102.358 -1257.261)" fill="#1d3f70"/>
          <path id="Path_101114" data-name="Path 101114" d="M1082.217,1300.357a3.451,3.451,0,0,0,1.543,4.609l6.568,3.305c.008,0,3.106-6.161,3.1-6.164C1090.439,1301.034,1084.6,1295.805,1082.217,1300.357Z" transform="translate(-1028.952 -1226.183)" fill="#fff"/>
          <path id="Path_101115" data-name="Path 101115" d="M715.057,825.14s-3.1,6.162-3.1,6.163l6.51,3.276a3.482,3.482,0,0,0,4.885-4.135,3.441,3.441,0,0,0-1.724-2s-6.571-3.312-6.572-3.3Z" transform="translate(-697.331 -801.787)" fill="#548c83"/>
          <path id="Path_101116" data-name="Path 101116" d="M630.437,792.307a3.451,3.451,0,0,0,1.543,4.609l6.568,3.305c.008,0,3.106-6.161,3.1-6.164C638.659,792.985,632.821,787.755,630.437,792.307Z" transform="translate(-623.925 -770.709)" fill="#fff"/>
          <path id="Path_101117" data-name="Path 101117" d="M1007.517,745.81s-3.1,6.162-3.1,6.163l6.51,3.276a3.481,3.481,0,0,0,4.885-4.135,3.441,3.441,0,0,0-1.724-2s-6.571-3.312-6.573-3.3Z" transform="translate(-959.526 -730.667)" fill="#548c83"/>
          <path id="Path_101118" data-name="Path 101118" d="M922.9,712.977a3.451,3.451,0,0,0,1.543,4.609l6.568,3.305c.008,0,3.106-6.161,3.1-6.164C931.12,713.655,925.281,708.425,922.9,712.977Z" transform="translate(-886.119 -699.589)" fill="#fff"/>
          <path id="Path_101119" data-name="Path 101119" d="M768.157,1020.93s-3.1,6.162-3.1,6.163l6.51,3.276a3.481,3.481,0,0,0,4.885-4.135,3.441,3.441,0,0,0-1.724-2s-6.571-3.312-6.572-3.3Z" transform="translate(-744.936 -977.315)" fill="#548c83"/>
          <path id="Path_101120" data-name="Path 101120" d="M683.537,988.1a3.45,3.45,0,0,0,1.543,4.609l6.568,3.305c.008,0,3.106-6.161,3.1-6.164C691.759,988.775,685.921,983.545,683.537,988.1Z" transform="translate(-671.53 -946.237)" fill="#fff"/>
          <path id="Path_101121" data-name="Path 101121" d="M1060.627,941.6s-3.1,6.161-3.1,6.163l6.51,3.276a3.482,3.482,0,0,0,4.885-4.135,3.441,3.441,0,0,0-1.724-2s-6.571-3.312-6.573-3.3Z" transform="translate(-1007.14 -906.195)" fill="#1d3f70"/>
          <path id="Path_101122" data-name="Path 101122" d="M976,908.777a3.45,3.45,0,0,0,1.543,4.609l6.568,3.305c.008,0,3.106-6.161,3.1-6.164C984.219,909.455,978.381,904.225,976,908.777Z" transform="translate(-933.724 -875.126)" fill="#fff"/>
          <path id="Path_101123" data-name="Path 101123" d="M821.267,1216.72s-3.1,6.162-3.1,6.163l6.51,3.276a3.481,3.481,0,0,0,4.885-4.135,3.441,3.441,0,0,0-1.724-2s-6.571-3.312-6.572-3.3Z" transform="translate(-792.55 -1152.844)" fill="#548c83"/>
          <path id="Path_101124" data-name="Path 101124" d="M736.647,1183.9a3.45,3.45,0,0,0,1.543,4.609l6.568,3.305c.008,0,3.106-6.161,3.1-6.164C744.869,1184.575,739.031,1179.345,736.647,1183.9Z" transform="translate(-719.143 -1121.775)" fill="#fff"/>
          <path id="Path_101125" data-name="Path 101125" d="M1113.727,1137.4s-3.1,6.162-3.1,6.163l6.51,3.276a3.481,3.481,0,0,0,4.885-4.135,3.441,3.441,0,0,0-1.724-2s-6.571-3.312-6.572-3.3Z" transform="translate(-1054.745 -1081.732)" fill="#1d3f70"/>
          <path id="Path_101126" data-name="Path 101126" d="M1029.107,1104.567a3.451,3.451,0,0,0,1.543,4.609l6.568,3.305c.008,0,3.106-6.161,3.1-6.164C1037.329,1105.245,1031.491,1100.015,1029.107,1104.567Z" transform="translate(-981.338 -1050.654)" fill="#fff"/>
          <path id="Path_101127" data-name="Path 101127" d="M834.292,702.518a1.316,1.316,0,0,0-.926,1.616l22.1,81.481a1.317,1.317,0,1,0,2.543-.689l-22.1-81.481a1.317,1.317,0,0,0-1.616-.926Z" transform="translate(-806.132 -691.814)" fill="#b7c4c1"/>
        </g>
        <g id="_6" data-name="6" transform="translate(48.678 7.855)">
          <path id="Path_101128" data-name="Path 101128" d="M1105.4,827.6v50.231a10.622,10.622,0,0,1-10.623,10.622H1051.6a10.622,10.622,0,0,1-10.622-10.622V827.6a15.678,15.678,0,0,1,4.288-10.854,14.262,14.262,0,0,1,10.352-4.5,2.046,2.046,0,0,0,2-2.093V804.21h31.148v5.948a2.045,2.045,0,0,0,2,2.093c8.085,0,14.641,6.871,14.641,15.349Z" transform="translate(-1040.98 -790.878)" fill="#629e94"/>
          <path id="Path_101129" data-name="Path 101129" d="M1105.4,1030.24v50.231a10.622,10.622,0,0,1-10.623,10.622H1051.6a10.622,10.622,0,0,1-10.622-10.622c63.443,0,64.421-50.231,64.421-50.231Z" transform="translate(-1040.98 -993.517)" fill="#548c83"/>
          <path id="Path_101130" data-name="Path 101130" d="M1175.476,675.38h28.487a4.518,4.518,0,0,1,4.516,4.516v8.547a4.518,4.518,0,0,1-4.516,4.516h-28.487a4.518,4.518,0,0,1-4.516-4.516V679.9A4.518,4.518,0,0,1,1175.476,675.38Z" transform="translate(-1157.509 -675.38)" fill="#5c8f86"/>
          <rect id="Rectangle_55825" data-name="Rectangle 55825" width="47.785" height="48.847" rx="4" transform="translate(8.318 35.514)" fill="#fff"/>
          <path id="Path_101131" data-name="Path 101131" d="M1177.921,1074.8a6.078,6.078,0,0,0-.567-.952,4.5,4.5,0,0,0-.659-.814,2.89,2.89,0,0,0-.621-.383,3.869,3.869,0,0,0,.965-.471,4.07,4.07,0,0,0,1.3-1.517,4.883,4.883,0,0,0,.47-2.209,4.8,4.8,0,0,0-.615-2.494,3.241,3.241,0,0,0-1.641-1.426,8.427,8.427,0,0,0-2.846-.376h-6.547a.177.177,0,0,0-.177.177v14.832a.177.177,0,0,0,.177.177h3.945a.177.177,0,0,0,.177-.177v-5.842h.17a1.306,1.306,0,0,1,.848.3,3.209,3.209,0,0,1,.664,1.083l2.1,4.533a.177.177,0,0,0,.162.1h4.438a.177.177,0,0,0,.149-.081.175.175,0,0,0,.013-.169l-1.9-4.3Zm-6.642-7.292h1.548a1.965,1.965,0,0,1,1.341.333,1.3,1.3,0,0,1,.337.976,1.348,1.348,0,0,1-.217.763.857.857,0,0,1-.534.391,4.76,4.76,0,0,1-1,.2h-1.479v-2.661Z" transform="translate(-1153.941 -1023.927)" fill="#eb8278"/>
          <path id="Path_101132" data-name="Path 101132" d="M1310.259,1079.083l-4.28-7.563,3.909-7.1a.178.178,0,0,0-.156-.263h-4.283a.179.179,0,0,0-.16.1l-2.031,4.234-2.088-4.236a.178.178,0,0,0-.159-.1h-4.327a.177.177,0,0,0-.153.088.18.18,0,0,0,0,.177l3.937,7.015-4.335,7.642a.18.18,0,0,0,0,.177.177.177,0,0,0,.153.088h4.388a.177.177,0,0,0,.157-.1l2.353-4.468,2.353,4.468a.179.179,0,0,0,.157.1h4.414a.177.177,0,0,0,.154-.265Z" transform="translate(-1269.703 -1023.927)" fill="#eb8278"/>
          <path id="Path_101133" data-name="Path 101133" d="M1195.9,1255.75H1156.73a.59.59,0,0,1,0-1.18H1195.9a.59.59,0,0,1,0,1.18Z" transform="translate(-1144.223 -1194.632)" fill="#cbe3df"/>
          <path id="Path_101134" data-name="Path 101134" d="M1346.05,1303.35h-21.84a.59.59,0,1,1,0-1.18h21.84a.59.59,0,1,1,0,1.18Z" transform="translate(-1294.371 -1237.306)" fill="#cbe3df"/>
          <path id="Path_101135" data-name="Path 101135" d="M1169.722,1303.35h-13a.59.59,0,1,1,0-1.18h13a.59.59,0,0,1,0,1.18Z" transform="translate(-1144.214 -1237.306)" fill="#cbe3df"/>
          <path id="Path_101136" data-name="Path 101136" d="M1195.9,1350.95H1156.73a.59.59,0,0,1,0-1.18H1195.9a.59.59,0,0,1,0,1.18Z" transform="translate(-1144.223 -1279.98)" fill="#cbe3df"/>
          <path id="Path_101137" data-name="Path 101137" d="M1439.09,1398.55h-11.1a.59.59,0,0,1,0-1.18h11.1a.59.59,0,1,1,0,1.18Z" transform="translate(-1387.411 -1322.654)" fill="#cbe3df"/>
          <path id="Path_101138" data-name="Path 101138" d="M1180.573,1398.55H1156.73a.59.59,0,0,1,0-1.18h23.843a.59.59,0,0,1,0,1.18Z" transform="translate(-1144.223 -1322.654)" fill="#cbe3df"/>
          <path id="Path_101139" data-name="Path 101139" d="M1296.58,1446.15h-27.55a.59.59,0,0,1,0-1.18h27.55a.59.59,0,0,1,0,1.18Z" transform="translate(-1244.901 -1365.328)" fill="#cbe3df"/>
          <path id="Path_101140" data-name="Path 101140" d="M1164.259,1446.15h-7.529a.59.59,0,0,1,0-1.18h7.529a.59.59,0,0,1,0,1.18Z" transform="translate(-1144.223 -1365.328)" fill="#cbe3df"/>
          <path id="Path_101141" data-name="Path 101141" d="M1202.316,708.424h0a1.4,1.4,0,0,1-1.4-1.4V696.276a1.4,1.4,0,0,1,1.4-1.4h0a1.4,1.4,0,0,1,1.4,1.4v10.752A1.4,1.4,0,0,1,1202.316,708.424Z" transform="translate(-1184.368 -692.862)" fill="#629e94"/>
          <path id="Path_101142" data-name="Path 101142" d="M1312.576,708.424h0a1.4,1.4,0,0,1-1.4-1.4V696.276a1.4,1.4,0,0,1,1.4-1.4h0a1.4,1.4,0,0,1,1.4,1.4v10.752A1.4,1.4,0,0,1,1312.576,708.424Z" transform="translate(-1283.218 -692.862)" fill="#629e94"/>
          <path id="Path_101143" data-name="Path 101143" d="M1257.446,708.424h0a1.4,1.4,0,0,1-1.4-1.4V696.276a1.4,1.4,0,0,1,1.4-1.4h0a1.4,1.4,0,0,1,1.4,1.4v10.752A1.4,1.4,0,0,1,1257.446,708.424Z" transform="translate(-1233.793 -692.862)" fill="#629e94"/>
          <path id="Path_101144" data-name="Path 101144" d="M1367.706,708.424h0a1.4,1.4,0,0,1-1.4-1.4V696.276a1.4,1.4,0,0,1,1.4-1.4h0a1.4,1.4,0,0,1,1.4,1.4v10.752A1.4,1.4,0,0,1,1367.706,708.424Z" transform="translate(-1332.643 -692.862)" fill="#629e94"/>
          <path id="Path_101145" data-name="Path 101145" d="M1422.836,708.424h0a1.4,1.4,0,0,1-1.4-1.4V696.276a1.4,1.4,0,0,1,1.4-1.4h0a1.4,1.4,0,0,1,1.4,1.4v10.752A1.4,1.4,0,0,1,1422.836,708.424Z" transform="translate(-1382.068 -692.862)" fill="#629e94"/>
          <path id="Path_101146" data-name="Path 101146" d="M1477.966,708.424h0a1.4,1.4,0,0,1-1.4-1.4V696.276a1.4,1.4,0,0,1,1.4-1.4h0a1.4,1.4,0,0,1,1.4,1.4v10.752A1.4,1.4,0,0,1,1477.966,708.424Z" transform="translate(-1431.492 -692.862)" fill="#629e94"/>
        </g>
        <g id="_5" data-name="5" transform="translate(97.411 94.801)">
          <path id="Path_101147" data-name="Path 101147" d="M1541.548,1582.11v4.749c0,3.832-6.617,6.939-14.779,6.939a25.2,25.2,0,0,1-10.52-2.066c-2.634-1.253-4.259-2.974-4.259-4.873v-4.749h29.559Z" transform="translate(-1511.98 -1575.222)" fill="#d6a65e"/>
          <path id="Path_101148" data-name="Path 101148" d="M1541.46,1522.435c-.139,8.3-27.783,10.065-29.5.62a3.982,3.982,0,0,1-.057-1.007c.41-5.5,12.882-7.776,21.508-5.8C1537.677,1517.229,1541,1519.249,1541.46,1522.435Z" transform="translate(-1511.892 -1515.547)" fill="#eec275"/>
          <path id="Path_101149" data-name="Path 101149" d="M1599.98,1520.232l-12.967,12.979c-.336-.067-.591-.262-.914-.34l12.7-12.9C1599.132,1520.037,1599.658,1520.153,1599.98,1520.232Z" transform="translate(-1578.42 -1519.512)" fill="#d6a65e"/>
        </g>
        <g id="_4" data-name="4" transform="translate(39.542 97.546)">
          <path id="Path_101150" data-name="Path 101150" d="M1104.61,1565.339s1.209-10.4,1.219-10.4l10.99,1.283c4.557.378,6.4,6.628,2.738,9.322a5.224,5.224,0,0,1-3.856,1.095s-11.1-1.289-11.092-1.3Z" transform="translate(-1088.89 -1553.609)" fill="#4d726c"/>
          <path id="Path_101151" data-name="Path 101151" d="M952.742,1546.666a5.239,5.239,0,0,1,5.806-4.555l11.088,1.295c.012,0-1.208,10.4-1.215,10.4C963.733,1552.673,951.965,1554.427,952.742,1546.666Z" transform="translate(-952.705 -1542.075)" fill="#f2f2f2"/>
        </g>
      </g>
    </g>
  </g>
</svg>
