<svg xmlns="http://www.w3.org/2000/svg" width="20.75" height="19.75" viewBox="0 0 20.75 19.75">
  <path id="icons8-camera" d="M12.236,5a2.252,2.252,0,0,0-1.943,1.116L9.194,8H7.25A3.262,3.262,0,0,0,4,11.25v9.5A3.262,3.262,0,0,0,7.25,24h13.5A3.262,3.262,0,0,0,24,20.75v-9.5A3.262,3.262,0,0,0,20.75,8H18.806l-1.1-1.884A2.252,2.252,0,0,0,15.764,5Zm0,1.5h3.527a.748.748,0,0,1,.648.372l1.316,2.256a.75.75,0,0,0,.647.372H20.75a1.739,1.739,0,0,1,1.75,1.75v9.5a1.739,1.739,0,0,1-1.75,1.75H7.25A1.739,1.739,0,0,1,5.5,20.75v-9.5A1.739,1.739,0,0,1,7.25,9.5H9.625a.75.75,0,0,0,.647-.372l1.316-2.256A.748.748,0,0,1,12.236,6.5ZM14,11a4.5,4.5,0,1,0,4.5,4.5A4.511,4.511,0,0,0,14,11Zm0,1.5a3,3,0,1,1-3,3A2.989,2.989,0,0,1,14,12.5Z" transform="translate(-3.625 -4.625)" fill="#fff" stroke="#fff" stroke-width="0.75"/>
</svg>
