<svg xmlns="http://www.w3.org/2000/svg" width="17.096" height="17.543" viewBox="0 0 17.096 17.543">
  <path id="icons8-rename" d="M10.794,4a.658.658,0,1,0,0,1.315h1.1v14.9h-1.1a.658.658,0,1,0,0,1.315H12.44a.658.658,0,0,0,.213,0H14.3a.658.658,0,1,0,0-1.315h-1.1V5.315h1.1A.658.658,0,1,0,14.3,4ZM6.849,6.63A2.859,2.859,0,0,0,4,9.479v6.575A2.859,2.859,0,0,0,6.849,18.9h4.164V17.589H6.849a1.525,1.525,0,0,1-1.534-1.534V9.479A1.525,1.525,0,0,1,6.849,7.945h4.164V6.63Zm7.233,0V7.945h4.164a1.525,1.525,0,0,1,1.534,1.534v6.575a1.525,1.525,0,0,1-1.534,1.534H14.082V18.9h4.164A2.859,2.859,0,0,0,21.1,16.055V9.479A2.859,2.859,0,0,0,18.246,6.63Z" transform="translate(-4 -4)" fill="#4d4d4d"/>
</svg>
