<svg xmlns="http://www.w3.org/2000/svg" width="13.452" height="13.452" viewBox="0 0 13.452 13.452">
  <path id="icons8-edit" d="M15.978,5.01a2.47,2.47,0,0,0-1.752.723L6.387,13.57a1.239,1.239,0,0,0-.315.537L5.022,17.785a.531.531,0,0,0,.656.656l3.679-1.051h0a1.242,1.242,0,0,0,.535-.315L17.73,9.237A2.475,2.475,0,0,0,15.978,5.01Zm0,1.056a1.41,1.41,0,0,1,1,.418h0a1.408,1.408,0,0,1,0,2l-.687.687-2-2,.687-.687A1.412,1.412,0,0,1,15.978,6.066ZM13.539,7.921l2,2-6.4,6.4a.179.179,0,0,1-.077.045l-2.759.788.788-2.76h0a.173.173,0,0,1,.045-.076Z" transform="translate(-5.001 -5.01)" fill="#007965"/>
</svg>
